ffmpeg started on 2016-12-04 at 05:30:14
Report written to "Output/x264/results/ffmpeg/crowd_run_2160p50ultrafast14000k.log"
Command line:
Tools/ffmpeg/ffmpeg -benchmark -y -i Input/y4m/crowd_run_2160p50.y4m -c:v libx264 -preset ultrafast -b:v 14000k -an Output/x264/encoded/crowd_run_2160p50ultrafast14000k.mkv
ffmpeg version N-82227-gdb23fde Copyright (c) 2000-2016 the FFmpeg developers
  built with gcc 5.4.0 (Ubuntu 5.4.0-6ubuntu1~16.04.2) 20160609
  configuration: --prefix=/home/jaroslav/ffmpeg_build --pkg-config-flags=--static --extra-cflags=-I/home/jaroslav/ffmpeg_build/include --extra-ldflags=-L/home/jaroslav/ffmpeg_build/lib --bindir=/home/jaroslav/bin --enable-gpl --enable-libass --enable-libfdk-aac --enable-libfreetype --enable-libmp3lame --enable-libopus --enable-libtheora --enable-libvorbis --enable-libvpx --enable-libx264 --enable-libx265 --enable-nvenc --enable-libmfx --enable-libxvid --enable-libgsm --enable-libopencore-amrnb --enable-version3 --enable-nonfree
  libavutil      55. 35.100 / 55. 35.100
  libavcodec     57. 66.101 / 57. 66.101
  libavformat    57. 57.100 / 57. 57.100
  libavdevice    57.  2.100 / 57.  2.100
  libavfilter     6. 66.100 /  6. 66.100
  libswscale      4.  3.100 /  4.  3.100
  libswresample   2.  4.100 /  2.  4.100
  libpostproc    54.  2.100 / 54.  2.100
Input #0, yuv4mpegpipe, from 'Input/y4m/crowd_run_2160p50.y4m':
  Duration: 00:00:10.00, start: 0.000000, bitrate: 4976642 kb/s
    Stream #0:0: Video: rawvideo (I420 / 0x30323449), yuv420p(progressive), 3840x2160, SAR 1:1 DAR 16:9, 50 fps, 50 tbr, 50 tbn, 50 tbc
[libx264 @ 0x2d171c0] using SAR=1/1
[libx264 @ 0x2d171c0] using cpu capabilities: MMX2 SSE2Fast SSSE3 SSE4.2 AVX FMA3 AVX2 LZCNT BMI2
[libx264 @ 0x2d171c0] profile Constrained Baseline, level 5.2
[libx264 @ 0x2d171c0] 264 - core 148 - H.264/MPEG-4 AVC codec - Copyleft 2003-2016 - http://www.videolan.org/x264.html - options: cabac=0 ref=1 deblock=0:0:0 analyse=0:0 me=dia subme=0 psy=1 psy_rd=1.00:0.00 mixed_ref=0 me_range=16 chroma_me=1 trellis=0 8x8dct=0 cqm=0 deadzone=21,11 fast_pskip=1 chroma_qp_offset=0 threads=6 lookahead_threads=1 sliced_threads=0 nr=0 decimate=1 interlaced=0 bluray_compat=0 constrained_intra=0 bframes=0 weightp=0 keyint=250 keyint_min=25 scenecut=0 intra_refresh=0 rc=abr mbtree=0 bitrate=14000 ratetol=1.0 qcomp=0.60 qpmin=0 qpmax=69 qpstep=4 ip_ratio=1.40 aq=0
Output #0, matroska, to 'Output/x264/encoded/crowd_run_2160p50ultrafast14000k.mkv':
  Metadata:
    encoder         : Lavf57.57.100
    Stream #0:0: Video: h264 (libx264) (H264 / 0x34363248), yuv420p, 3840x2160 [SAR 1:1 DAR 16:9], q=-1--1, 14000 kb/s, 50 fps, 1k tbn, 50 tbc
    Metadata:
      encoder         : Lavc57.66.101 libx264
    Side data:
      cpb: bitrate max/min/avg: 0/0/14000000 buffer size: 0 vbv_delay: -1
Stream mapping:
  Stream #0:0 -> #0:0 (rawvideo (native) -> h264 (libx264))
Press [q] to stop, [?] for help
frame=   47 fps=0.0 q=44.0 size=       1kB time=00:00:00.78 bitrate=   7.5kbits/s speed=1.55x    frame=   93 fps= 92 q=43.0 size=       1kB time=00:00:01.70 bitrate=   3.4kbits/s speed=1.68x    frame=  139 fps= 91 q=43.0 size=       1kB time=00:00:02.62 bitrate=   2.2kbits/s speed=1.71x    frame=  184 fps= 91 q=43.0 size=    5130kB time=00:00:03.52 bitrate=11936.0kbits/s speed=1.73x    frame=  229 fps= 90 q=44.0 size=    5130kB time=00:00:04.42 bitrate=9506.2kbits/s speed=1.74x    frame=  275 fps= 90 q=44.0 size=    8653kB time=00:00:05.34 bitrate=13272.3kbits/s speed=1.75x    frame=  321 fps= 90 q=44.0 size=    8653kB time=00:00:06.26 bitrate=11322.1kbits/s speed=1.76x    frame=  367 fps= 90 q=43.0 size=    8653kB time=00:00:07.18 bitrate=9871.5kbits/s speed=1.77x    frame=  411 fps= 90 q=43.0 size=   13802kB time=00:00:08.06 bitrate=14026.2kbits/s speed=1.76x    frame=  456 fps= 90 q=43.0 size=   13802kB time=00:00:08.96 bitrate=12617.5kbits/s speed=1.76x    frame=  500 fps= 89 q=-1.0 Lsize=   17150kB time=00:00:09.98 bitrate=14076.0kbits/s speed=1.77x    
video:17145kB audio:0kB subtitle:0kB other streams:0kB global headers:0kB muxing overhead: 0.027687%
bench: utime=20.292s
bench: maxrss=373368kB
[libx264 @ 0x2d171c0] frame I:2     Avg QP:41.00  size:190785
[libx264 @ 0x2d171c0] frame P:498   Avg QP:43.34  size: 34487
[libx264 @ 0x2d171c0] mb I  I16..4: 100.0%  0.0%  0.0%
[libx264 @ 0x2d171c0] mb P  I16..4:  8.0%  0.0%  0.0%  P16..4: 24.4%  0.0%  0.0%  0.0%  0.0%    skip:67.6%
[libx264 @ 0x2d171c0] final ratefactor: 37.07
[libx264 @ 0x2d171c0] coded y,uvDC,uvAC intra: 10.0% 43.2% 12.4% inter: 3.2% 6.2% 0.1%
[libx264 @ 0x2d171c0] i16 v,h,dc,p: 37% 24% 28% 11%
[libx264 @ 0x2d171c0] i8c dc,h,v,p: 66% 11% 19%  4%
[libx264 @ 0x2d171c0] kb/s:14044.85
